<svg width="42" height="30" viewBox="0 0 42 30" fill="none" xmlns="http://www.w3.org/2000/svg">
<path d="M41.8725 17.6706L33.4658 3.12919L33.7748 2.81844C34.1588 2.83881 34.549 2.70643 34.843 2.41145C35.3924 1.85958 35.3924 0.965127 34.843 0.413896C34.2935 -0.137965 33.4037 -0.137965 32.8542 0.413896C32.5602 0.708222 32.429 1.10044 32.449 1.48676L5.66144 28.3924C5.29515 28.7603 5.29515 29.3565 5.66144 29.7241C5.84491 29.9084 6.08431 30 6.32437 30C6.56442 30 6.80447 29.908 6.98729 29.7241L25.41 11.2194L40.6369 18.9832C40.7713 19.0518 40.9178 19.0853 41.0607 19.0853C41.3129 19.0853 41.5611 18.9832 41.7423 18.791C42.0285 18.4868 42.0811 18.0309 41.8728 17.6706L41.8725 17.6706Z" fill="#C45260"/>
<path d="M9.54918 1.48647C9.56946 1.10083 9.43766 0.708609 9.14397 0.41361C8.64032 -0.0922605 7.85378 -0.128395 7.30237 0.292727C7.25037 0.327218 7.20066 0.367622 7.1552 0.41361C6.60576 0.965144 6.60576 1.85926 7.1552 2.41116C7.44856 2.70581 7.83939 2.83819 8.22336 2.81815L8.53274 3.1289L0.126832 17.6703C-0.0818253 18.0316 -0.0291713 18.4863 0.256345 18.7908C0.437859 18.9829 0.686411 19.0851 0.93791 19.0851C1.08247 19.0851 1.22734 19.0526 1.36209 18.9829L16.5882 11.2198L19.0112 13.6535L20.3371 12.3218L9.54918 1.48647Z" fill="#C45260"/>
<path d="M35.0119 29.7237C35.1954 29.9079 35.4348 29.9996 35.6748 29.9996C35.9149 29.9996 36.1546 29.9076 36.3377 29.7237C36.704 29.3558 36.704 28.7595 36.3377 28.392L22.9896 14.985L21.6641 16.3167L35.0119 29.7237Z" fill="#C45260"/>
</svg>
