<svg width="35" height="38" viewBox="0 0 35 38" fill="none" xmlns="http://www.w3.org/2000/svg">
<path d="M17.5294 0.000249535C17.9619 0.333471 20.4766 2.25704 23.913 4.4118C24.9394 5.05549 26.017 5.70435 27.1123 6.30448L17.4852 15.8262L8.24084 6.6973C9.59604 5.99022 10.877 5.20026 12.0298 4.41155C15.147 2.27959 17.1318 0.382998 17.5289 0L17.5294 0.000249535ZM31.5497 4.60097L31.3285 6.15884L16.5561 20.7472C15.8185 21.4761 15.4887 22.4656 15.1702 23.4117C13.5231 23.979 12.807 24.5226 11.5139 25.7849L10.1134 24.402C11.3864 23.1273 11.9434 22.4027 12.5166 20.7766C13.4597 20.4687 14.433 20.1657 15.1999 19.408L29.9428 4.8196L31.5497 4.60097ZM3.44999 4.64453L5.05713 4.86299L16.8073 16.4961L15.4511 17.8355L3.68655 6.2024L3.44999 4.64453ZM30.7392 8.05156C32.2453 8.67412 33.6976 9.12341 35 9.25998C34.9227 16.914 32.6012 22.7814 29.6778 27.1682L26.6408 24.1688L29.1766 21.6646L28.513 21.0096C27.4708 21.9676 26.5223 23.0339 25.5791 23.834C24.1978 22.4686 23.9118 22.1429 23.2939 20.3106C23.2486 20.1676 23.1291 20.0496 22.9842 20.0051C21.9634 19.6686 21.0763 19.3883 20.4633 18.7821L20.1684 18.4908L30.7388 8.05198L30.7392 8.05156ZM4.48192 8.31359L14.7869 18.4911L14.5363 18.7385C13.9229 19.3448 13.0362 19.625 12.0154 19.9615C11.8761 20.0102 11.7628 20.1273 11.7206 20.267C11.1026 22.0993 10.8038 22.425 9.42084 23.7904C8.3911 22.9442 7.44723 21.914 6.48688 20.966L5.82329 21.621L8.3591 24.1252L5.30733 27.1389C2.39416 22.7582 0.0798672 16.9056 0 9.2748C1.50936 9.16882 3.01518 8.81252 4.48195 8.31381L4.48192 8.31359ZM19.5046 19.1602L19.7994 19.4515C20.5696 20.2128 21.5501 20.5109 22.4973 20.8201C23.0701 22.4452 23.6138 23.1719 24.8855 24.4455L23.4996 25.8141C22.2111 24.557 21.473 24.0216 19.8285 23.4556C19.5099 22.5096 19.1801 21.5199 18.4426 20.7911L18.1478 20.4998L19.5046 19.1602ZM17.4848 21.155L17.7796 21.4463C18.3442 22.0045 18.6802 22.9339 19.018 23.9359C19.0642 24.0704 19.1764 24.1813 19.3128 24.2271C21.1671 24.838 21.497 25.1296 22.8806 26.4982C21.9562 27.5643 20.8886 28.5405 20.0206 29.3954L20.6842 30.0505L23.22 27.5609L26.6993 30.9968C22.3256 35.7862 17.7973 37.8661 17.4998 38C17.2007 37.8654 12.6619 35.7802 8.28506 30.9825L11.7938 27.5173L14.3147 30.0069L14.9783 29.3518C14.0853 28.3619 12.9063 27.4897 12.1183 26.4546C13.5019 25.0857 13.8317 24.7944 15.6861 24.1835C15.8278 24.1416 15.9466 24.0301 15.9958 23.8922C16.3335 22.8903 16.6696 21.9605 17.2341 21.4027L17.4848 21.155ZM9.02227 24.7804L11.1305 26.8623L9.44975 28.5219L7.34151 26.44L9.02227 24.7804ZM25.9769 24.8243L27.6725 26.4839L25.579 28.5512L23.8835 26.8916L25.9769 24.8243ZM6.67865 27.0954L8.7721 29.1773L7.44529 30.5021L5.33705 28.4202L6.67865 27.0954ZM28.3214 27.1536L29.6631 28.464L27.5696 30.5313L26.228 29.2209L28.3214 27.1536ZM4.67394 29.0756L6.76739 31.1429L5.44058 32.4676L3.34713 30.3857L4.67394 29.0756ZM30.327 29.1338L31.6538 30.4442L29.5603 32.5115L28.2335 31.2011L30.327 29.1338ZM2.66923 31.0557L4.76268 33.123L3.43587 34.4478L1.34242 32.3659L2.66923 31.0557ZM32.3325 31.0996L33.6593 32.4244L31.5659 34.4917L30.2391 33.1669L32.3325 31.0996ZM0.694101 33.0505L2.74327 35.0742C2.38276 35.3547 2.00507 35.5761 1.66704 35.671C1.18174 35.8076 0.808704 35.7699 0.399311 35.3655C-0.00577236 34.9656 -0.0493493 34.5924 0.0896366 34.1132C0.187024 33.7774 0.40723 33.4045 0.694119 33.0504L0.694101 33.0505ZM34.3085 33.0944C34.5954 33.4484 34.8156 33.8213 34.913 34.1572C35.052 34.636 35.0084 35.0092 34.6033 35.4094C34.1936 35.8138 33.8205 35.8516 33.3356 35.715C32.9952 35.6194 32.6178 35.4016 32.2593 35.1181L34.3085 33.0944Z" fill="#C45260"/>
</svg>
