<svg width="37" height="44" viewBox="0 0 37 44" fill="none" xmlns="http://www.w3.org/2000/svg">
<path d="M18.8564 4.98962C18.7388 5.00451 18.6235 5.02511 18.5024 5.02511C18.3814 5.02511 18.266 5.00388 18.1484 4.98962V12.0509H18.8564V4.98962Z" fill="#C45260"/>
<path d="M7.38692 23.6237L12.6429 18.3556C12.6508 18.3477 12.6613 18.3449 12.6698 18.3379C12.6783 18.3309 12.6834 18.3208 12.6926 18.3145C12.7039 18.3065 12.716 18.3053 12.7273 18.2996C12.7491 18.2875 12.7706 18.2783 12.7931 18.2711C12.8149 18.2647 12.8364 18.2603 12.8582 18.2584C12.8809 18.2562 12.9027 18.2555 12.9255 18.2577C12.9483 18.26 12.9701 18.2641 12.9912 18.2704C13.0124 18.2768 13.0323 18.2847 13.0522 18.2945C13.074 18.3059 13.0933 18.3186 13.1123 18.3351C13.1221 18.343 13.1341 18.3465 13.1426 18.3556C13.1505 18.3636 13.1534 18.3734 13.1597 18.3819C13.1666 18.3911 13.1774 18.3962 13.1837 18.4054L18.2302 25.7546L23.819 21.7123C23.8225 21.7095 23.8275 21.7095 23.8316 21.7066C23.8528 21.6917 23.8768 21.6838 23.9024 21.6746C23.9208 21.6676 23.9391 21.6575 23.9584 21.654C23.9811 21.6499 24.0036 21.6518 24.0279 21.6518C24.0497 21.6518 24.0725 21.6496 24.0936 21.654C24.1136 21.6575 24.1325 21.6676 24.1518 21.6752C24.1758 21.6844 24.1992 21.6924 24.222 21.7072C24.2254 21.7095 24.2305 21.7095 24.234 21.7123L29.5974 25.5645V12.762L7.38672 12.7623L7.38692 23.6237ZM25.1006 14.9235C26.3367 14.9235 27.3428 15.932 27.3428 17.1717C27.3428 18.4114 26.3367 19.4198 25.1006 19.4198C23.863 19.4198 22.8563 18.4114 22.8563 17.1717C22.8567 15.9326 23.8633 14.9235 25.1006 14.9235Z" fill="#C45260"/>
<path d="M12.8425 19.1588L7.38672 24.6268V31.2404H21.1383L12.8425 19.1588Z" fill="#C45260"/>
<path d="M26.6324 17.1726C26.6324 18.0224 25.945 18.7111 25.0973 18.7111C24.2496 18.7111 23.5625 18.0223 23.5625 17.1726C23.5625 16.3226 24.2496 15.6338 25.0973 15.6338C25.945 15.6338 26.6324 16.3226 26.6324 17.1726Z" fill="#C45260"/>
<path d="M34.8461 39.6843C33.6602 39.6843 32.6953 40.6509 32.6953 41.8396C32.6953 43.0312 33.6602 44 34.8461 44C36.0347 44 37.0013 43.0312 37.0013 41.8396C37.001 40.6506 36.0348 39.6843 34.8461 39.6843Z" fill="#C45260"/>
<path d="M34.8467 4.31629C36.0348 4.31629 37.0003 3.34837 37.0003 2.15814C37.0003 0.967917 36.0347 0 34.8467 0C33.6602 0 32.6953 0.967917 32.6953 2.15814C32.6953 3.34813 33.6602 4.31629 34.8467 4.31629Z" fill="#C45260"/>
<path d="M20.648 2.15814C20.648 0.967835 19.6815 0 18.4928 0C17.3057 0 16.3398 0.967916 16.3398 2.15814C16.3398 3.34813 17.3058 4.31629 18.4928 4.31629C19.6814 4.31629 20.648 3.34805 20.648 2.15814Z" fill="#C45260"/>
<path d="M26.8219 12.0507V4.93776L32.0283 2.67596C31.997 2.50773 31.9758 2.33538 31.9758 2.15796C31.9758 2.07433 31.9929 1.99543 32.0005 1.9137L26.3263 4.37858C26.3114 4.38492 26.3016 4.39696 26.2881 4.40551C26.2625 4.4204 26.2356 4.43529 26.215 4.45652C26.1986 4.47363 26.1888 4.49422 26.1762 4.51386C26.1635 4.53287 26.1487 4.54935 26.1401 4.57058C26.1266 4.60194 26.1237 4.63584 26.1202 4.67069C26.119 4.68273 26.1133 4.69255 26.1133 4.70491V4.70776V4.70839V12.0523H26.8219L26.8219 12.0507Z" fill="#C45260"/>
<path d="M5.01731 2.15811C5.01731 2.33553 4.99613 2.50788 4.96484 2.67611L10.169 4.93791V12.0518H10.877V4.70724V4.70661V4.70376C10.877 4.69108 10.8713 4.68095 10.87 4.66891C10.8665 4.63564 10.8631 4.60142 10.8501 4.57038C10.8409 4.54852 10.8255 4.53078 10.8125 4.51145C10.8005 4.49308 10.7913 4.47312 10.7758 4.45696C10.7524 4.43288 10.7234 4.4164 10.6937 4.40025C10.6823 4.39391 10.6753 4.38472 10.6639 4.37902L10.6611 4.37839L4.99325 1.91577C4.99957 1.99561 5.01727 2.0745 5.01727 2.15814L5.01731 2.15811Z" fill="#C45260"/>
<path d="M2.15141 39.6826C0.964938 39.6826 0 40.6499 0 41.8392C0 43.0307 0.964938 43.9996 2.15141 43.9996C3.3395 43.9996 4.30662 43.0308 4.30662 41.8392C4.30631 40.6499 3.3395 39.6826 2.15141 39.6826Z" fill="#C45260"/>
<path d="M10.1684 31.95V39.0616L4.96484 41.3218C4.99519 41.49 5.01731 41.6618 5.01731 41.8392C5.01731 41.9222 4.99961 42.0017 4.99266 42.0834L10.6599 39.6215L10.6627 39.6202C10.6741 39.6151 10.6804 39.6059 10.6912 39.6012C10.7215 39.5841 10.7512 39.5663 10.7755 39.5423C10.7904 39.5274 10.7983 39.5081 10.8103 39.4913C10.8245 39.4707 10.8407 39.4517 10.8498 39.4288C10.8625 39.3984 10.8653 39.3648 10.8688 39.3316C10.87 39.3189 10.8767 39.3081 10.8767 39.2948V39.292V39.2913L10.8764 31.95L10.1684 31.95Z" fill="#C45260"/>
<path d="M4.30589 2.15814C4.30589 3.34999 3.34193 4.31629 2.15295 4.31629C0.963967 4.31629 0 3.34999 0 2.15814C0 0.966294 0.963967 0 2.15295 0C3.34193 0 4.30589 0.966294 4.30589 2.15814Z" fill="#C45260"/>
<path d="M31.9752 41.8392C31.9752 41.6618 31.9964 41.49 32.0277 41.3218L26.8212 39.0616V31.95H26.1133V39.2945C26.1133 39.3081 26.1196 39.3186 26.1212 39.3322C26.1247 39.3648 26.1281 39.3981 26.1401 39.4288C26.1499 39.4529 26.167 39.4729 26.1819 39.4941C26.1932 39.5096 26.2002 39.5283 26.2144 39.5422C26.2413 39.5692 26.2738 39.5891 26.308 39.6075C26.3159 39.611 26.32 39.6173 26.3269 39.6211L26.3291 39.6218C26.3291 39.6218 26.3298 39.6224 26.3304 39.6224L31.9998 42.0835C31.9922 42.0017 31.9752 41.9225 31.9752 41.8392L31.9752 41.8392Z" fill="#C45260"/>
<path d="M29.605 26.4364L24.0354 22.4375L18.6406 26.3401L22.0054 31.241H29.605V26.4364Z" fill="#C45260"/>
<path d="M18.1445 39.0112C18.2621 38.9963 18.3775 38.9751 18.4985 38.9751C18.6196 38.9751 18.7349 38.9963 18.8525 39.0112V31.9512H18.1445V39.0112Z" fill="#C45260"/>
<path d="M16.3398 41.8393C16.3398 43.0308 17.3054 43.9997 18.4934 43.9997C19.6821 43.9997 20.6486 43.0309 20.6486 41.8393C20.6486 40.6506 19.6822 39.684 18.4934 39.684C17.3053 39.6843 16.3398 40.6506 16.3398 41.8393Z" fill="#C45260"/>
</svg>
