<svg width="40" height="40" viewBox="0 0 40 40" fill="none" xmlns="http://www.w3.org/2000/svg">
<path d="M25 20.0001C25 22.7615 22.7614 25.0001 20 25.0001C17.2387 25.0001 15 22.7615 15 20.0001C15 17.2388 17.2387 15.0001 20 15.0001C22.7614 15.0001 25 17.2388 25 20.0001Z" fill="#C45260"/>
<path d="M19.9996 5.00011C16.0215 5.00011 12.206 6.58059 9.39326 9.39337C6.58048 12.2065 5 16.022 5 19.9997C5 23.9775 6.58048 27.7933 9.39326 30.6061C12.2064 33.4189 16.0218 34.9994 19.9996 34.9994C23.9774 34.9994 27.7932 33.4189 30.606 30.6061C33.4188 27.793 34.9993 23.9775 34.9993 19.9997C35.0002 17.3664 34.3073 14.7793 32.9909 12.4988C31.6746 10.2183 29.7807 8.32432 27.5001 7.00797C25.2196 5.69162 22.6325 4.99876 19.9992 4.99963L19.9996 5.00011ZM19.9996 30.0002C17.3474 30.0002 14.804 28.9467 12.9287 27.0711C11.053 25.1958 9.99961 22.6524 9.99961 20.0001C9.99961 17.3479 11.053 14.8045 12.9287 12.9292C14.804 11.0535 17.3474 10.0001 19.9996 10.0001C22.6519 10.0001 25.1953 11.0535 27.0706 12.9292C28.9462 14.8045 29.9997 17.3479 29.9997 20.0001C29.9997 22.6524 28.9462 25.1958 27.0706 27.0711C25.1953 28.9467 22.6519 30.0002 19.9996 30.0002Z" fill="#C45260"/>
<path d="M20 7.93216e-05C14.6955 7.93216e-05 9.60867 2.10731 5.85787 5.85795C2.10723 9.60859 0 14.6961 0 20C0 25.304 2.10723 30.3913 5.85787 34.1421C9.60851 37.8928 14.696 40 20 40C25.3039 40 30.3913 37.8928 34.1421 34.1421C37.8927 30.3915 39.9999 25.304 39.9999 20C39.9999 16.4894 39.0757 13.0404 37.3204 10C35.5651 6.95962 33.0402 4.43485 29.9999 2.67953C26.9595 0.924208 23.5105 0 19.9999 0L20 7.93216e-05ZM20 37.5025C15.358 37.5025 10.9063 35.6586 7.62375 32.3763C4.3416 29.0939 2.49754 24.6423 2.49754 20.0001C2.49754 15.358 4.34152 10.9065 7.62375 7.6239C10.0717 5.17628 13.1902 3.50929 16.5849 2.83405C19.9799 2.15852 23.4993 2.50512 26.6968 3.82985C29.895 5.15453 32.6284 7.39787 34.5518 10.2761C36.4748 13.1544 37.5013 16.5382 37.5013 20C37.5013 24.6419 35.6574 29.0936 32.3751 32.3762C29.0927 35.6583 24.6411 37.5024 19.9989 37.5024L20 37.5025Z" fill="#C45260"/>
</svg>
