<svg width="26" height="40" viewBox="0 0 26 40" fill="none" xmlns="http://www.w3.org/2000/svg">
<path fill-rule="evenodd" clip-rule="evenodd" d="M19.1416 16.2555C19.1416 16.6104 18.8513 16.8989 18.4945 16.8989H7.50575C7.14895 16.8989 6.85865 16.6104 6.85865 16.2555V15.8027H19.1413L19.1416 16.2555ZM25.8708 0.353939C25.7246 0.133237 25.4768 0.000142858 25.2111 0.000142858H16.2909C15.9766 0.000142858 15.6922 0.185694 15.567 0.472525L13.8573 4.39527L18.1456 14.2339H16.4312L10.4332 0.472382C10.3083 0.185551 10.0239 0 9.70932 0H0.789128C0.523417 0 0.275303 0.133094 0.129451 0.353796C-0.0164004 0.574783 -0.0407052 0.8538 0.0651883 1.0963L5.79103 14.2336H4.31213C3.87654 14.2336 3.52311 14.5848 3.52311 15.0178C3.52311 15.4512 3.87656 15.8021 4.31213 15.8021H5.28054V16.255C5.28054 17.4746 6.27885 18.4671 7.50569 18.4671H11.108L8.6507 23.4163C8.62304 23.4721 8.56967 23.5106 8.50792 23.5196L2.37416 24.4057C1.70359 24.5025 1.15676 24.9607 0.947257 25.6016C0.737982 26.2425 0.909258 26.9328 1.39458 27.403L5.83293 31.7038C5.87792 31.747 5.89803 31.8095 5.8877 31.8709L4.83996 37.9438C4.72512 38.6079 4.99475 39.2664 5.54322 39.6623C5.8528 39.8864 6.21546 39.9999 6.58037 39.9999C6.86145 39.9999 7.14365 39.9327 7.40458 39.7963L12.8907 36.929C12.946 36.9 13.0119 36.9 13.0673 36.929L18.5533 39.7963C19.1532 40.1099 19.8665 40.0585 20.415 39.6623C20.9632 39.2664 21.2328 38.6079 21.1182 37.9438L20.0705 31.8707C20.0599 31.8096 20.0803 31.7471 20.125 31.7038L24.5633 27.403C25.0487 26.9329 25.2202 26.2426 25.0107 25.6016C24.8011 24.9607 24.2546 24.5026 23.5838 24.4058L17.45 23.5196C17.3882 23.5107 17.3349 23.4722 17.3072 23.4164L14.8499 18.4671H18.4944C19.7213 18.4671 20.7196 17.4746 20.7196 16.255V15.8022H21.688C22.1236 15.8022 22.4767 15.4512 22.4767 15.0179C22.4767 14.5849 22.1236 14.2336 21.688 14.2336H20.2088L25.9349 1.09637C26.0405 0.8539 26.0165 0.574876 25.8707 0.35386L25.8708 0.353939Z" fill="#C45260"/>
</svg>
