<svg width="28" height="38" viewBox="0 0 28 38" fill="none" xmlns="http://www.w3.org/2000/svg">
<path d="M0.000271382 20.9045C0.000305794 22.0091 0.895726 22.9045 2.00027 22.9045H12.2441V12.1939H15.3058V20.9045C15.3058 22.009 16.2012 22.9045 17.3058 22.9045H25.5495C26.6541 22.9045 27.5495 22.009 27.5495 20.9045V14.1939C27.5495 13.0893 26.6541 12.1939 25.5495 12.1939H19.3248C20.6436 11.484 21.9231 10.5566 22.832 9.46977C25.8673 5.84124 24.7255 2.72409 22.8261 1.15727C21.6214 0.163497 20.2277 -0.200964 18.7941 0.105479C17.4161 0.399701 16.072 1.3208 14.7978 2.84338C14.4433 3.26722 14.0979 3.77486 13.7748 4.33468C13.4518 3.77486 13.1064 3.26729 12.7518 2.84365C11.4782 1.32107 10.1338 0.39998 8.75609 0.105751C7.3239 -0.200401 5.92908 0.163535 4.72405 1.15727C2.82441 2.72409 1.6832 5.84124 4.71817 9.46977C5.62716 10.5563 6.90641 11.4843 8.22537 12.1939H2.00006C0.895468 12.1939 2.78985e-05 13.0894 6.23123e-05 14.194L0.000271382 20.9045ZM17.742 5.27179C18.7113 4.11319 19.3635 3.87115 19.5992 3.82107C19.6411 3.81206 19.6945 3.80039 19.7615 3.80039C19.9025 3.80039 20.1032 3.85102 20.3814 4.08057C20.6718 4.31992 21.5555 5.04909 19.8889 7.04192C18.8918 8.23363 17.0877 9.14869 15.8114 9.60564C16.0674 8.33386 16.7054 6.5112 17.742 5.27179ZM7.6619 7.04191C5.99475 5.04915 6.87893 4.31995 7.16911 4.08055C7.44754 3.85101 7.64802 3.80038 7.78897 3.80038C7.85598 3.80038 7.90963 3.81178 7.95154 3.82079C8.18699 3.87089 8.83859 4.11289 9.80792 5.27151C10.8448 6.51099 11.4825 8.33329 11.7391 9.60534C10.4628 9.1489 8.6587 8.23389 7.6619 7.04191Z" fill="#C45260"/>
<path d="M0 27.9445C0 26.8399 0.895431 25.9445 2 25.9445H10.2437C11.3483 25.9445 12.2437 26.8399 12.2437 27.9445V36C12.2437 37.1045 11.3483 38 10.2437 38H2C0.895431 38 0 37.1045 0 36V27.9445Z" fill="#C45260"/>
<path d="M15.3086 27.9445C15.3086 26.8399 16.204 25.9445 17.3086 25.9445H25.5523C26.6569 25.9445 27.5523 26.8399 27.5523 27.9445V36C27.5523 37.1045 26.6569 38 25.5523 38H17.3086C16.204 38 15.3086 37.1045 15.3086 36V27.9445Z" fill="#C45260"/>
</svg>
