<svg width="331" height="192" viewBox="0 0 331 192" fill="none" xmlns="http://www.w3.org/2000/svg">
<path d="M154.488 2.48032C161.59 -0.160106 169.41 -0.160106 176.512 2.48032L176.686 2.01227L176.512 2.48032L310.012 52.1124C322.333 56.6929 330.5 68.4166 330.5 81.5174V110.483C330.5 123.583 322.333 135.307 310.012 139.888L176.512 189.52C169.41 192.16 161.59 192.16 154.488 189.52L20.9879 139.888C8.66731 135.307 0.5 123.583 0.5 110.483V81.5174C0.5 68.4166 8.6673 56.6928 20.9879 52.1124L154.488 2.48032L154.314 2.01166L154.488 2.48032Z" fill="#0C2536" stroke="url(#paint0_linear_301_3182)"/>
<path d="M43.352 105.224C42.6987 105.224 42.232 105 41.952 104.552C41.672 104.104 41.6813 103.563 41.98 102.928L49.372 86.548C49.6147 86.0067 49.904 85.624 50.24 85.4C50.5947 85.1573 50.996 85.036 51.444 85.036C51.8733 85.036 52.256 85.1573 52.592 85.4C52.9467 85.624 53.2453 86.0067 53.488 86.548L60.908 102.928C61.2067 103.581 61.2253 104.132 60.964 104.58C60.7027 105.009 60.2547 105.224 59.62 105.224C59.0973 105.224 58.6867 105.103 58.388 104.86C58.108 104.599 57.856 104.207 57.632 103.684L56.232 100.436H46.6L45.228 103.684C44.9853 104.225 44.7333 104.617 44.472 104.86C44.2107 105.103 43.8373 105.224 43.352 105.224ZM51.388 89.152L47.832 97.58H55L51.444 89.152H51.388ZM65.4479 105.224C64.2533 105.224 63.6559 104.627 63.6559 103.432V92.848C63.6559 91.672 64.2253 91.084 65.3639 91.084C66.5026 91.084 67.0719 91.672 67.0719 92.848V93.716C67.7439 92.1107 69.1813 91.2147 71.3839 91.028C72.1866 90.9347 72.6346 91.392 72.7279 92.4C72.8213 93.3893 72.3359 93.94 71.2719 94.052L70.6559 94.108C68.3599 94.332 67.2119 95.508 67.2119 97.636V103.432C67.2119 104.627 66.6239 105.224 65.4479 105.224ZM81.15 105.28C79.6007 105.28 78.266 104.991 77.146 104.412C76.026 103.833 75.158 103.012 74.542 101.948C73.9447 100.884 73.646 99.624 73.646 98.168C73.646 96.7493 73.9354 95.508 74.514 94.444C75.1114 93.38 75.9234 92.5493 76.95 91.952C77.9954 91.336 79.1807 91.028 80.506 91.028C82.4474 91.028 83.978 91.644 85.098 92.876C86.2367 94.108 86.806 95.788 86.806 97.916C86.806 98.6067 86.358 98.952 85.462 98.952H77.006C77.2674 101.397 78.6674 102.62 81.206 102.62C81.6914 102.62 82.2327 102.564 82.83 102.452C83.446 102.321 84.0247 102.107 84.566 101.808C85.0514 101.528 85.462 101.444 85.798 101.556C86.134 101.649 86.3674 101.845 86.498 102.144C86.6474 102.443 86.666 102.779 86.554 103.152C86.4607 103.507 86.1994 103.815 85.77 104.076C85.1167 104.487 84.3607 104.795 83.502 105C82.662 105.187 81.878 105.28 81.15 105.28ZM80.646 93.408C79.6194 93.408 78.7887 93.7253 78.154 94.36C77.5194 94.9947 77.1367 95.8533 77.006 96.936H83.894C83.8194 95.7973 83.502 94.9293 82.942 94.332C82.4007 93.716 81.6354 93.408 80.646 93.408ZM91.3138 105.224C90.1565 105.224 89.5778 104.627 89.5778 103.432V92.848C89.5778 91.672 90.1471 91.084 91.2858 91.084C92.4245 91.084 92.9938 91.672 92.9938 92.848V93.436C93.4605 92.652 94.0858 92.0547 94.8698 91.644C95.6725 91.2333 96.5685 91.028 97.5578 91.028C100.787 91.028 102.402 92.904 102.402 96.656V103.432C102.402 104.627 101.823 105.224 100.666 105.224C99.4898 105.224 98.9018 104.627 98.9018 103.432V96.824C98.9018 95.76 98.6965 94.9853 98.2858 94.5C97.8938 94.0147 97.2778 93.772 96.4378 93.772C95.4111 93.772 94.5898 94.0987 93.9738 94.752C93.3765 95.3867 93.0778 96.236 93.0778 97.3V103.432C93.0778 104.627 92.4898 105.224 91.3138 105.224ZM110.465 105.28C109.475 105.28 108.589 105.093 107.805 104.72C107.039 104.328 106.433 103.805 105.985 103.152C105.555 102.499 105.341 101.761 105.341 100.94C105.341 99.932 105.602 99.1387 106.125 98.56C106.647 97.9627 107.497 97.5333 108.673 97.272C109.849 97.0107 111.426 96.88 113.405 96.88H114.385V96.292C114.385 95.3587 114.179 94.6867 113.769 94.276C113.358 93.8653 112.667 93.66 111.697 93.66C111.155 93.66 110.567 93.7253 109.933 93.856C109.317 93.9867 108.663 94.2107 107.973 94.528C107.525 94.7333 107.151 94.7613 106.853 94.612C106.554 94.444 106.349 94.192 106.237 93.856C106.143 93.5013 106.162 93.1467 106.293 92.792C106.442 92.4373 106.731 92.176 107.161 92.008C108.019 91.6533 108.841 91.4013 109.625 91.252C110.427 91.1027 111.155 91.028 111.809 91.028C113.806 91.028 115.29 91.4947 116.261 92.428C117.231 93.3427 117.717 94.7707 117.717 96.712V103.432C117.717 104.627 117.175 105.224 116.093 105.224C114.991 105.224 114.441 104.627 114.441 103.432V102.816C114.123 103.581 113.619 104.188 112.929 104.636C112.238 105.065 111.417 105.28 110.465 105.28ZM111.193 102.872C112.107 102.872 112.863 102.555 113.461 101.92C114.077 101.285 114.385 100.483 114.385 99.512V98.896H113.433C111.678 98.896 110.455 99.036 109.765 99.316C109.093 99.5773 108.757 100.063 108.757 100.772C108.757 101.388 108.971 101.892 109.401 102.284C109.83 102.676 110.427 102.872 111.193 102.872ZM130.887 105.224C129.804 105.224 129.263 104.664 129.263 103.544V86.716C129.263 85.596 129.823 85.036 130.943 85.036C131.409 85.036 131.773 85.1293 132.035 85.316C132.315 85.484 132.567 85.7827 132.791 86.212L139.259 98.168L145.727 86.212C145.951 85.7827 146.193 85.484 146.455 85.316C146.716 85.1293 147.08 85.036 147.547 85.036C148.629 85.036 149.171 85.596 149.171 86.716V103.544C149.171 104.664 148.629 105.224 147.547 105.224C146.464 105.224 145.923 104.664 145.923 103.544V91.7L140.659 101.304C140.472 101.621 140.276 101.855 140.071 102.004C139.865 102.153 139.585 102.228 139.231 102.228C138.876 102.228 138.587 102.153 138.363 102.004C138.139 101.836 137.943 101.603 137.775 101.304L132.511 91.756V103.544C132.511 104.664 131.969 105.224 130.887 105.224ZM157.687 105.28C156.698 105.28 155.811 105.093 155.027 104.72C154.262 104.328 153.655 103.805 153.207 103.152C152.778 102.499 152.563 101.761 152.563 100.94C152.563 99.932 152.825 99.1387 153.347 98.56C153.87 97.9627 154.719 97.5333 155.895 97.272C157.071 97.0107 158.649 96.88 160.627 96.88H161.607V96.292C161.607 95.3587 161.402 94.6867 160.991 94.276C160.581 93.8653 159.89 93.66 158.919 93.66C158.378 93.66 157.79 93.7253 157.155 93.856C156.539 93.9867 155.886 94.2107 155.195 94.528C154.747 94.7333 154.374 94.7613 154.075 94.612C153.777 94.444 153.571 94.192 153.459 93.856C153.366 93.5013 153.385 93.1467 153.515 92.792C153.665 92.4373 153.954 92.176 154.383 92.008C155.242 91.6533 156.063 91.4013 156.847 91.252C157.65 91.1027 158.378 91.028 159.031 91.028C161.029 91.028 162.513 91.4947 163.483 92.428C164.454 93.3427 164.939 94.7707 164.939 96.712V103.432C164.939 104.627 164.398 105.224 163.315 105.224C162.214 105.224 161.663 104.627 161.663 103.432V102.816C161.346 103.581 160.842 104.188 160.151 104.636C159.461 105.065 158.639 105.28 157.687 105.28ZM158.415 102.872C159.33 102.872 160.086 102.555 160.683 101.92C161.299 101.285 161.607 100.483 161.607 99.512V98.896H160.655C158.901 98.896 157.678 99.036 156.987 99.316C156.315 99.5773 155.979 100.063 155.979 100.772C155.979 101.388 156.194 101.892 156.623 102.284C157.053 102.676 157.65 102.872 158.415 102.872ZM173.504 105.28C172.701 105.28 171.852 105.196 170.956 105.028C170.06 104.86 169.257 104.571 168.548 104.16C168.156 103.936 167.913 103.665 167.82 103.348C167.727 103.012 167.736 102.704 167.848 102.424C167.979 102.125 168.184 101.911 168.464 101.78C168.763 101.649 169.108 101.677 169.5 101.864C170.247 102.219 170.947 102.471 171.6 102.62C172.253 102.751 172.897 102.816 173.532 102.816C174.428 102.816 175.091 102.667 175.52 102.368C175.968 102.051 176.192 101.64 176.192 101.136C176.192 100.352 175.613 99.848 174.456 99.624L171.656 99.092C169.285 98.644 168.1 97.412 168.1 95.396C168.1 94.5 168.343 93.7253 168.828 93.072C169.332 92.4187 170.023 91.9147 170.9 91.56C171.777 91.2053 172.785 91.028 173.924 91.028C175.567 91.028 177.032 91.392 178.32 92.12C178.675 92.3067 178.88 92.568 178.936 92.904C179.011 93.2213 178.973 93.5293 178.824 93.828C178.693 94.108 178.479 94.3133 178.18 94.444C177.881 94.556 177.536 94.5187 177.144 94.332C176.565 94.0333 176.005 93.8187 175.464 93.688C174.941 93.5573 174.437 93.492 173.952 93.492C173.037 93.492 172.356 93.6507 171.908 93.968C171.479 94.2853 171.264 94.7053 171.264 95.228C171.264 96.0493 171.796 96.5533 172.86 96.74L175.66 97.272C176.873 97.496 177.788 97.9067 178.404 98.504C179.039 99.1013 179.356 99.904 179.356 100.912C179.356 102.275 178.824 103.348 177.76 104.132C176.696 104.897 175.277 105.28 173.504 105.28ZM188.299 105.28C184.678 105.28 182.867 103.488 182.867 99.904V93.94H181.411C180.478 93.94 180.011 93.5013 180.011 92.624C180.011 91.7467 180.478 91.308 181.411 91.308H182.867V88.76C182.867 87.584 183.455 86.996 184.631 86.996C185.788 86.996 186.367 87.584 186.367 88.76V91.308H189.335C190.268 91.308 190.735 91.7467 190.735 92.624C190.735 93.5013 190.268 93.94 189.335 93.94H186.367V99.708C186.367 100.604 186.563 101.276 186.955 101.724C187.347 102.172 187.982 102.396 188.859 102.396C189.176 102.396 189.456 102.368 189.699 102.312C189.942 102.256 190.156 102.219 190.343 102.2C190.567 102.181 190.754 102.256 190.903 102.424C191.052 102.573 191.127 102.891 191.127 103.376C191.127 103.749 191.062 104.085 190.931 104.384C190.819 104.664 190.604 104.86 190.287 104.972C190.044 105.047 189.727 105.112 189.335 105.168C188.943 105.243 188.598 105.28 188.299 105.28ZM199.384 105.28C197.835 105.28 196.5 104.991 195.38 104.412C194.26 103.833 193.392 103.012 192.776 101.948C192.179 100.884 191.88 99.624 191.88 98.168C191.88 96.7493 192.17 95.508 192.748 94.444C193.346 93.38 194.158 92.5493 195.184 91.952C196.23 91.336 197.415 91.028 198.74 91.028C200.682 91.028 202.212 91.644 203.332 92.876C204.471 94.108 205.04 95.788 205.04 97.916C205.04 98.6067 204.592 98.952 203.696 98.952H195.24C195.502 101.397 196.902 102.62 199.44 102.62C199.926 102.62 200.467 102.564 201.064 102.452C201.68 102.321 202.259 102.107 202.8 101.808C203.286 101.528 203.696 101.444 204.032 101.556C204.368 101.649 204.602 101.845 204.732 102.144C204.882 102.443 204.9 102.779 204.788 103.152C204.695 103.507 204.434 103.815 204.004 104.076C203.351 104.487 202.595 104.795 201.736 105C200.896 105.187 200.112 105.28 199.384 105.28ZM198.88 93.408C197.854 93.408 197.023 93.7253 196.388 94.36C195.754 94.9947 195.371 95.8533 195.24 96.936H202.128C202.054 95.7973 201.736 94.9293 201.176 94.332C200.635 93.716 199.87 93.408 198.88 93.408ZM209.604 105.224C208.41 105.224 207.812 104.627 207.812 103.432V92.848C207.812 91.672 208.382 91.084 209.52 91.084C210.659 91.084 211.228 91.672 211.228 92.848V93.716C211.9 92.1107 213.338 91.2147 215.54 91.028C216.343 90.9347 216.791 91.392 216.884 92.4C216.978 93.3893 216.492 93.94 215.428 94.052L214.812 94.108C212.516 94.332 211.368 95.508 211.368 97.636V103.432C211.368 104.627 210.78 105.224 209.604 105.224ZM228.619 105C227.349 105 226.715 104.365 226.715 103.096V87.164C226.715 85.8947 227.349 85.26 228.619 85.26H234.051C237.355 85.26 239.903 86.1093 241.695 87.808C243.505 89.5067 244.411 91.9427 244.411 95.116C244.411 98.2707 243.505 100.707 241.695 102.424C239.903 104.141 237.355 105 234.051 105H228.619ZM230.299 102.032H233.827C238.381 102.032 240.659 99.7267 240.659 95.116C240.659 90.524 238.381 88.228 233.827 88.228H230.299V102.032ZM254.455 105.28C252.905 105.28 251.571 104.991 250.451 104.412C249.331 103.833 248.463 103.012 247.847 101.948C247.249 100.884 246.951 99.624 246.951 98.168C246.951 96.7493 247.24 95.508 247.819 94.444C248.416 93.38 249.228 92.5493 250.255 91.952C251.3 91.336 252.485 91.028 253.811 91.028C255.752 91.028 257.283 91.644 258.403 92.876C259.541 94.108 260.111 95.788 260.111 97.916C260.111 98.6067 259.663 98.952 258.767 98.952H250.311C250.572 101.397 251.972 102.62 254.511 102.62C254.996 102.62 255.537 102.564 256.135 102.452C256.751 102.321 257.329 102.107 257.871 101.808C258.356 101.528 258.767 101.444 259.103 101.556C259.439 101.649 259.672 101.845 259.803 102.144C259.952 102.443 259.971 102.779 259.859 103.152C259.765 103.507 259.504 103.815 259.075 104.076C258.421 104.487 257.665 104.795 256.807 105C255.967 105.187 255.183 105.28 254.455 105.28ZM253.951 93.408C252.924 93.408 252.093 93.7253 251.459 94.36C250.824 94.9947 250.441 95.8533 250.311 96.936H257.199C257.124 95.7973 256.807 94.9293 256.247 94.332C255.705 93.716 254.94 93.408 253.951 93.408ZM269.211 105.28C267.773 105.28 266.523 104.991 265.459 104.412C264.395 103.815 263.573 102.975 262.995 101.892C262.416 100.809 262.127 99.54 262.127 98.084C262.127 96.628 262.416 95.3773 262.995 94.332C263.573 93.268 264.395 92.456 265.459 91.896C266.523 91.3173 267.773 91.028 269.211 91.028C269.827 91.028 270.489 91.112 271.199 91.28C271.927 91.448 272.608 91.728 273.243 92.12C273.616 92.344 273.831 92.6333 273.887 92.988C273.961 93.3427 273.915 93.6693 273.747 93.968C273.597 94.2667 273.364 94.4813 273.047 94.612C272.748 94.7427 272.403 94.696 272.011 94.472C271.152 93.9867 270.321 93.744 269.519 93.744C268.305 93.744 267.363 94.1267 266.691 94.892C266.037 95.6387 265.711 96.712 265.711 98.112C265.711 99.4933 266.037 100.585 266.691 101.388C267.363 102.172 268.305 102.564 269.519 102.564C270.321 102.564 271.152 102.331 272.011 101.864C272.403 101.64 272.748 101.593 273.047 101.724C273.345 101.855 273.56 102.079 273.691 102.396C273.821 102.695 273.849 103.021 273.775 103.376C273.7 103.712 273.485 103.992 273.131 104.216C272.515 104.589 271.861 104.86 271.171 105.028C270.48 105.196 269.827 105.28 269.211 105.28ZM277.826 105.224C276.668 105.224 276.09 104.627 276.09 103.432V86.8C276.09 85.624 276.668 85.036 277.826 85.036C279.002 85.036 279.59 85.624 279.59 86.8V97.132H279.646L284.266 92.26C284.639 91.8867 284.966 91.5973 285.246 91.392C285.526 91.1867 285.908 91.084 286.394 91.084C286.879 91.084 287.243 91.2147 287.486 91.476C287.747 91.7187 287.878 92.0173 287.878 92.372C287.878 92.7267 287.71 93.0813 287.374 93.436L283.174 97.86L287.85 102.9C288.186 103.255 288.335 103.619 288.298 103.992C288.279 104.347 288.13 104.645 287.85 104.888C287.57 105.112 287.215 105.224 286.786 105.224C286.263 105.224 285.843 105.121 285.526 104.916C285.227 104.711 284.891 104.403 284.518 103.992L279.646 98.896H279.59V103.432C279.59 104.627 279.002 105.224 277.826 105.224Z" fill="white"/>
<defs>
<linearGradient id="paint0_linear_301_3182" x1="29" y1="35" x2="264.5" y2="114.5" gradientUnits="userSpaceOnUse">
<stop stop-color="#C45260"/>
<stop offset="1" stop-color="#C45260" stop-opacity="0"/>
</linearGradient>
</defs>
</svg>
