<svg width="30" height="30" viewBox="0 0 30 30" fill="none" xmlns="http://www.w3.org/2000/svg">
<path d="M0.248766 19.289C-0.113423 17.3637 -0.29889 8.79279 1.28845 7.58624C2.56409 6.61456 6.81499 6.69545 8.4436 6.75934C8.48275 5.59137 8.65122 3.81696 9.09017 2.46361C10.0165 -0.398848 11.4359 -0.0969448 13.5905 0.888159C17.4251 2.64087 30.6956 10.8795 29.9715 15.7049C29.3589 19.7642 14.6034 31.4054 11.223 29.8596C10.4543 29.5087 9.89326 28.4366 9.49495 27.2558C8.14569 26.8395 7.31253 24.1903 7.13171 22.9471C6.25586 22.8853 3.22704 22.7307 2.5623 22.4263C1.82505 22.0893 1.3557 21.0708 1.08985 20.2644C0.697264 20.0604 0.333256 19.7455 0.248766 19.289ZM1.67795 18.9026C3.02061 19.611 6.04952 19.6136 7.59767 19.5811C8.21283 19.6255 8.66208 20.0634 8.5544 20.6924C8.55028 20.729 8.08866 23.6348 9.87332 25.8192C12.623 27.0763 28.0349 18.6589 28.5137 15.4816C29.0763 11.7408 16.0704 3.64644 12.9767 2.23176C11.5068 1.55993 11.0725 1.13076 10.493 2.92008C10.0334 4.34056 9.90511 6.3101 9.90511 7.30444C9.90666 7.85314 9.43833 8.2859 8.89737 8.25293C7.70416 8.18389 3.04624 8.09682 2.18116 8.75474C1.30531 9.42141 1.47444 17.5651 1.67795 18.9026Z" fill="white"/>
</svg>
