<svg width="30" height="30" viewBox="0 0 30 30" fill="none" xmlns="http://www.w3.org/2000/svg">
<path d="M29.7512 19.289C30.1134 17.3637 30.2989 8.79279 28.7116 7.58624C27.4359 6.61456 23.185 6.69545 21.5564 6.75934C21.5172 5.59137 21.3488 3.81696 20.9098 2.46361C19.9835 -0.398848 18.5641 -0.0969429 16.4095 0.888159C12.5749 2.64087 -0.695568 10.8795 0.0285187 15.7049C0.641092 19.7642 15.3966 31.4054 18.777 29.8596C19.5457 29.5087 20.1067 28.4366 20.505 27.2558C21.8543 26.8395 22.6875 24.1903 22.8683 22.9471C23.7441 22.8853 26.773 22.7307 27.4377 22.4263C28.175 22.0893 28.6443 21.0708 28.9101 20.2644C29.3027 20.0604 29.6665 19.7446 29.751 19.2881L29.7512 19.289ZM28.3221 18.9026C26.9794 19.611 23.9505 19.6136 22.4023 19.5811C21.7872 19.6255 21.3379 20.0634 21.4456 20.6924C21.4497 20.729 21.9113 23.6348 20.1267 25.8192C17.377 27.0763 1.96512 18.6589 1.48635 15.4816C0.92375 11.7408 13.9296 3.64643 17.0233 2.23176C18.4932 1.55993 18.9275 1.13076 19.507 2.92008C19.9666 4.34056 20.0949 6.3101 20.0949 7.30444C20.0933 7.85314 20.5617 8.2859 21.1026 8.25293C22.2958 8.18389 26.9538 8.09682 27.8188 8.75474C28.6947 9.42141 28.5257 17.5647 28.3222 18.9023L28.3221 18.9026Z" fill="white"/>
</svg>
