<svg width="331" height="192" viewBox="0 0 331 192" fill="none" xmlns="http://www.w3.org/2000/svg">
<path d="M154.488 2.48032C161.59 -0.160106 169.41 -0.160106 176.512 2.48032L176.686 2.01227L176.512 2.48032L310.012 52.1124C322.333 56.6929 330.5 68.4166 330.5 81.5174V110.483C330.5 123.583 322.333 135.307 310.012 139.888L176.512 189.52C169.41 192.16 161.59 192.16 154.488 189.52L20.9879 139.888C8.66731 135.307 0.5 123.583 0.5 110.483V81.5174C0.5 68.4166 8.6673 56.6928 20.9879 52.1124L154.488 2.48032L154.314 2.01166L154.488 2.48032Z" fill="#0C2536" stroke="url(#paint0_linear_257_4281)"/>
<path d="M96.1 105.224C95.148 105.224 94.4947 104.72 94.14 103.712L88.288 87.164C88.0827 86.5667 88.12 86.0627 88.4 85.652C88.6987 85.2413 89.1933 85.036 89.884 85.036C90.388 85.036 90.78 85.1573 91.06 85.4C91.34 85.624 91.564 85.988 91.732 86.492L96.212 99.82L100.916 86.52C101.271 85.5307 101.868 85.036 102.708 85.036C103.156 85.036 103.511 85.1573 103.772 85.4C104.033 85.6427 104.257 86.0253 104.444 86.548L109.064 100.016L113.684 86.492C113.852 86.0067 114.076 85.6427 114.356 85.4C114.636 85.1573 115.019 85.036 115.504 85.036C116.101 85.036 116.54 85.2413 116.82 85.652C117.1 86.0627 117.137 86.5667 116.932 87.164L111.024 103.74C110.837 104.244 110.595 104.617 110.296 104.86C109.997 105.103 109.596 105.224 109.092 105.224C108.588 105.224 108.187 105.103 107.888 104.86C107.589 104.617 107.347 104.235 107.16 103.712L102.596 90.748L98.004 103.74C97.8173 104.244 97.5747 104.617 97.276 104.86C96.996 105.103 96.604 105.224 96.1 105.224ZM123.122 105.224C121.965 105.224 121.386 104.627 121.386 103.432V86.8C121.386 85.624 121.965 85.036 123.122 85.036C124.298 85.036 124.886 85.624 124.886 86.8V93.296C125.353 92.5493 125.978 91.9893 126.762 91.616C127.546 91.224 128.414 91.028 129.366 91.028C132.596 91.028 134.21 92.904 134.21 96.656V103.432C134.21 104.627 133.632 105.224 132.474 105.224C131.298 105.224 130.71 104.627 130.71 103.432V96.824C130.71 95.76 130.505 94.9853 130.094 94.5C129.702 94.0147 129.086 93.772 128.246 93.772C127.22 93.772 126.398 94.0987 125.782 94.752C125.185 95.3867 124.886 96.236 124.886 97.3V103.432C124.886 104.627 124.298 105.224 123.122 105.224ZM139.501 88.508C138.848 88.508 138.335 88.3493 137.961 88.032C137.607 87.696 137.429 87.2387 137.429 86.66C137.429 86.0627 137.607 85.6053 137.961 85.288C138.335 84.9707 138.848 84.812 139.501 84.812C140.883 84.812 141.573 85.428 141.573 86.66C141.573 87.892 140.883 88.508 139.501 88.508ZM139.501 105.196C138.941 105.196 138.512 105.028 138.213 104.692C137.915 104.356 137.765 103.889 137.765 103.292V93.016C137.765 91.7467 138.344 91.112 139.501 91.112C140.677 91.112 141.265 91.7467 141.265 93.016V103.292C141.265 103.889 141.116 104.356 140.817 104.692C140.519 105.028 140.08 105.196 139.501 105.196ZM151.174 105.28C147.553 105.28 145.742 103.488 145.742 99.904V93.94H144.286C143.353 93.94 142.886 93.5013 142.886 92.624C142.886 91.7467 143.353 91.308 144.286 91.308H145.742V88.76C145.742 87.584 146.33 86.996 147.506 86.996C148.663 86.996 149.242 87.584 149.242 88.76V91.308H152.21C153.143 91.308 153.61 91.7467 153.61 92.624C153.61 93.5013 153.143 93.94 152.21 93.94H149.242V99.708C149.242 100.604 149.438 101.276 149.83 101.724C150.222 102.172 150.857 102.396 151.734 102.396C152.051 102.396 152.331 102.368 152.574 102.312C152.817 102.256 153.031 102.219 153.218 102.2C153.442 102.181 153.629 102.256 153.778 102.424C153.927 102.573 154.002 102.891 154.002 103.376C154.002 103.749 153.937 104.085 153.806 104.384C153.694 104.664 153.479 104.86 153.162 104.972C152.919 105.047 152.602 105.112 152.21 105.168C151.818 105.243 151.473 105.28 151.174 105.28ZM162.259 105.28C160.71 105.28 159.375 104.991 158.255 104.412C157.135 103.833 156.267 103.012 155.651 101.948C155.054 100.884 154.755 99.624 154.755 98.168C154.755 96.7493 155.045 95.508 155.623 94.444C156.221 93.38 157.033 92.5493 158.059 91.952C159.105 91.336 160.29 91.028 161.615 91.028C163.557 91.028 165.087 91.644 166.207 92.876C167.346 94.108 167.915 95.788 167.915 97.916C167.915 98.6067 167.467 98.952 166.571 98.952H158.115C158.377 101.397 159.777 102.62 162.315 102.62C162.801 102.62 163.342 102.564 163.939 102.452C164.555 102.321 165.134 102.107 165.675 101.808C166.161 101.528 166.571 101.444 166.907 101.556C167.243 101.649 167.477 101.845 167.607 102.144C167.757 102.443 167.775 102.779 167.663 103.152C167.57 103.507 167.309 103.815 166.879 104.076C166.226 104.487 165.47 104.795 164.611 105C163.771 105.187 162.987 105.28 162.259 105.28ZM161.755 93.408C160.729 93.408 159.898 93.7253 159.263 94.36C158.629 94.9947 158.246 95.8533 158.115 96.936H165.003C164.929 95.7973 164.611 94.9293 164.051 94.332C163.51 93.716 162.745 93.408 161.755 93.408ZM172.423 110.264C171.266 110.264 170.687 109.676 170.687 108.5V92.848C170.687 91.672 171.257 91.084 172.395 91.084C173.553 91.084 174.131 91.672 174.131 92.848V93.436C174.523 92.708 175.111 92.1293 175.895 91.7C176.679 91.252 177.575 91.028 178.583 91.028C179.778 91.028 180.823 91.3173 181.719 91.896C182.634 92.4747 183.343 93.296 183.847 94.36C184.351 95.4053 184.603 96.6653 184.603 98.14C184.603 99.596 184.351 100.865 183.847 101.948C183.343 103.012 182.643 103.833 181.747 104.412C180.851 104.991 179.797 105.28 178.583 105.28C177.613 105.28 176.735 105.075 175.951 104.664C175.186 104.235 174.598 103.665 174.187 102.956V108.5C174.187 109.676 173.599 110.264 172.423 110.264ZM177.603 102.62C178.649 102.62 179.489 102.247 180.123 101.5C180.758 100.735 181.075 99.6147 181.075 98.14C181.075 96.6467 180.758 95.536 180.123 94.808C179.489 94.0613 178.649 93.688 177.603 93.688C176.558 93.688 175.718 94.0613 175.083 94.808C174.449 95.536 174.131 96.6467 174.131 98.14C174.131 99.6147 174.449 100.735 175.083 101.5C175.718 102.247 176.558 102.62 177.603 102.62ZM191.984 105.28C190.995 105.28 190.108 105.093 189.324 104.72C188.559 104.328 187.952 103.805 187.504 103.152C187.075 102.499 186.86 101.761 186.86 100.94C186.86 99.932 187.122 99.1387 187.644 98.56C188.167 97.9627 189.016 97.5333 190.192 97.272C191.368 97.0107 192.946 96.88 194.924 96.88H195.904V96.292C195.904 95.3587 195.699 94.6867 195.288 94.276C194.878 93.8653 194.187 93.66 193.216 93.66C192.675 93.66 192.087 93.7253 191.452 93.856C190.836 93.9867 190.183 94.2107 189.492 94.528C189.044 94.7333 188.671 94.7613 188.372 94.612C188.074 94.444 187.868 94.192 187.756 93.856C187.663 93.5013 187.682 93.1467 187.812 92.792C187.962 92.4373 188.251 92.176 188.68 92.008C189.539 91.6533 190.36 91.4013 191.144 91.252C191.947 91.1027 192.675 91.028 193.328 91.028C195.326 91.028 196.81 91.4947 197.78 92.428C198.751 93.3427 199.236 94.7707 199.236 96.712V103.432C199.236 104.627 198.695 105.224 197.612 105.224C196.511 105.224 195.96 104.627 195.96 103.432V102.816C195.643 103.581 195.139 104.188 194.448 104.636C193.758 105.065 192.936 105.28 191.984 105.28ZM192.712 102.872C193.627 102.872 194.383 102.555 194.98 101.92C195.596 101.285 195.904 100.483 195.904 99.512V98.896H194.952C193.198 98.896 191.975 99.036 191.284 99.316C190.612 99.5773 190.276 100.063 190.276 100.772C190.276 101.388 190.491 101.892 190.92 102.284C191.35 102.676 191.947 102.872 192.712 102.872ZM204.525 110.264C203.367 110.264 202.789 109.676 202.789 108.5V92.848C202.789 91.672 203.358 91.084 204.497 91.084C205.654 91.084 206.233 91.672 206.233 92.848V93.436C206.625 92.708 207.213 92.1293 207.997 91.7C208.781 91.252 209.677 91.028 210.685 91.028C211.879 91.028 212.925 91.3173 213.821 91.896C214.735 92.4747 215.445 93.296 215.949 94.36C216.453 95.4053 216.705 96.6653 216.705 98.14C216.705 99.596 216.453 100.865 215.949 101.948C215.445 103.012 214.745 103.833 213.849 104.412C212.953 104.991 211.898 105.28 210.685 105.28C209.714 105.28 208.837 105.075 208.053 104.664C207.287 104.235 206.699 103.665 206.289 102.956V108.5C206.289 109.676 205.701 110.264 204.525 110.264ZM209.705 102.62C210.75 102.62 211.59 102.247 212.225 101.5C212.859 100.735 213.177 99.6147 213.177 98.14C213.177 96.6467 212.859 95.536 212.225 94.808C211.59 94.0613 210.75 93.688 209.705 93.688C208.659 93.688 207.819 94.0613 207.185 94.808C206.55 95.536 206.233 96.6467 206.233 98.14C206.233 99.6147 206.55 100.735 207.185 101.5C207.819 102.247 208.659 102.62 209.705 102.62ZM226.326 105.28C224.776 105.28 223.442 104.991 222.322 104.412C221.202 103.833 220.334 103.012 219.718 101.948C219.12 100.884 218.822 99.624 218.822 98.168C218.822 96.7493 219.111 95.508 219.69 94.444C220.287 93.38 221.099 92.5493 222.126 91.952C223.171 91.336 224.356 91.028 225.682 91.028C227.623 91.028 229.154 91.644 230.274 92.876C231.412 94.108 231.982 95.788 231.982 97.916C231.982 98.6067 231.534 98.952 230.638 98.952H222.182C222.443 101.397 223.843 102.62 226.382 102.62C226.867 102.62 227.408 102.564 228.006 102.452C228.622 102.321 229.2 102.107 229.742 101.808C230.227 101.528 230.638 101.444 230.974 101.556C231.31 101.649 231.543 101.845 231.674 102.144C231.823 102.443 231.842 102.779 231.73 103.152C231.636 103.507 231.375 103.815 230.946 104.076C230.292 104.487 229.536 104.795 228.678 105C227.838 105.187 227.054 105.28 226.326 105.28ZM225.822 93.408C224.795 93.408 223.964 93.7253 223.33 94.36C222.695 94.9947 222.312 95.8533 222.182 96.936H229.07C228.995 95.7973 228.678 94.9293 228.118 94.332C227.576 93.716 226.811 93.408 225.822 93.408ZM236.546 105.224C235.351 105.224 234.754 104.627 234.754 103.432V92.848C234.754 91.672 235.323 91.084 236.462 91.084C237.6 91.084 238.17 91.672 238.17 92.848V93.716C238.842 92.1107 240.279 91.2147 242.482 91.028C243.284 90.9347 243.732 91.392 243.826 92.4C243.919 93.3893 243.434 93.94 242.37 94.052L241.754 94.108C239.458 94.332 238.31 95.508 238.31 97.636V103.432C238.31 104.627 237.722 105.224 236.546 105.224Z" fill="white"/>
<defs>
<linearGradient id="paint0_linear_257_4281" x1="29" y1="35" x2="264.5" y2="114.5" gradientUnits="userSpaceOnUse">
<stop stop-color="#C45260"/>
<stop offset="1" stop-color="#C45260" stop-opacity="0"/>
</linearGradient>
</defs>
</svg>
